<svg width="511" height="151" viewBox="0 0 511 151" fill="none" xmlns="http://www.w3.org/2000/svg">
<g style="mix-blend-mode:soft-light" opacity="0.15">
<path d="M511 195V96.4584H479.059V51.096H474.54V77.0953H462.261V69.9036H440.157V45.0053H436.059V14.5818H432.776V44.4598H425.001V88.7112H410.251V44.4598H383.643V81.8865H355.688V36.5141H351.197V62.5234H338.903V55.3317H316.8V30.4334H312.702V0H309.418V29.8779H301.644V74.1393H286.894V29.8779H260.286V72.691H242.337V47.7927H238.239V17.3693H234.955V47.2472H227.18V91.4986H212.445V47.2472H185.822V91.4986H172.715V96.4584H149.756V51.096H145.251V77.0953H132.971V69.9036H110.854V45.0053H106.77V14.5818H103.486V44.4598H96.3428V41.96H69.7347V44.4598H54.9852V41.96H47.2104V12.092H43.9265V42.5155H39.8427V67.4138H17.7254V74.6055H5.43179V48.6062H0.940968V93.9686H-31V195H511Z" fill="#F5F5F5"/>
</g>
</svg>
