<svg width="100" height="59" viewBox="0 0 100 59" fill="none" xmlns="http://www.w3.org/2000/svg">
<path d="M99.9846 47.4102C99.9866 45.6664 99.5804 43.9463 98.7984 42.3876C98.0165 40.8289 96.8805 39.4749 95.4815 38.4339C94.0825 37.3929 92.4592 36.6939 90.7416 36.3926C89.024 36.0914 87.2597 36.1964 85.5899 36.6993C85.7614 35.5645 85.8467 34.4185 85.8452 33.2708C85.8506 29.7895 85.0872 26.35 83.6096 23.1978C82.1319 20.0456 79.9765 17.2586 77.2973 15.0358C74.618 12.8129 71.4809 11.2091 68.1101 10.3387C64.7394 9.46844 61.218 9.35314 57.7975 10.0011C55.4758 6.14795 51.9603 3.15754 47.7846 1.48379C43.609 -0.189947 39.0014 -0.455617 34.661 0.727104C30.3207 1.90982 26.4848 4.47635 23.7356 8.03709C20.9864 11.5978 19.4739 15.9583 19.4279 20.4567H19.0754C14.0163 20.4567 9.16437 22.4664 5.58704 26.0437C2.00971 29.621 0 34.4729 0 39.532C0 44.5911 2.00971 49.443 5.58704 53.0204C9.16437 56.5977 14.0163 58.6074 19.0754 58.6074H89.1278C92.0412 58.5281 94.8079 57.3123 96.8366 55.2199C98.8654 53.1275 99.9952 50.3246 99.9846 47.4102Z" fill="black" fill-opacity="0.05"/>
</svg>
