<svg width="244" height="228" viewBox="0 0 244 228" fill="none" xmlns="http://www.w3.org/2000/svg">
<path d="M202.693 31.3644H179.378C179.378 31.3644 184.589 23.7871 188.704 23.7871C192.819 23.7871 194.019 28.8231 194.019 28.8231C194.019 28.8231 196.934 26.4916 199.603 26.8938C202.273 27.296 202.693 31.3644 202.693 31.3644Z" fill="black"/>
<path d="M65.4271 83.3795H44.7178C44.7178 83.3795 48.2791 76.5891 52.1377 76.4959C55.9963 76.4026 58.0247 81.6309 58.0247 81.6309C58.0247 81.6309 64.0283 76.8164 65.4271 83.3795Z" fill="black"/>
<path d="M185.947 94.5127H160.691V226.906H185.947V94.5127Z" fill="#DBDBDB"/>
<path d="M169.522 98.814H164.614V103.867H169.522V98.814Z" fill="black"/>
<path d="M175.799 98.814H170.891V103.867H175.799V98.814Z" fill="black"/>
<path d="M169.522 107.394H164.614V112.448H169.522V107.394Z" fill="black"/>
<path d="M175.799 107.394H170.891V112.448H175.799V107.394Z" fill="black"/>
<path d="M169.522 115.979H164.614V121.033H169.522V115.979Z" fill="black"/>
<path d="M175.799 115.979H170.891V121.033H175.799V115.979Z" fill="black"/>
<path d="M169.522 124.56H164.614V129.613H169.522V124.56Z" fill="black"/>
<path d="M175.799 124.56H170.891V129.613H175.799V124.56Z" fill="black"/>
<path d="M169.522 133.145H164.614V138.198H169.522V133.145Z" fill="black"/>
<path d="M175.799 133.145H170.891V138.198H175.799V133.145Z" fill="black"/>
<path d="M169.522 141.725H164.614V146.779H169.522V141.725Z" fill="black"/>
<path d="M175.799 141.725H170.891V146.779H175.799V141.725Z" fill="black"/>
<path d="M169.522 150.311H164.614V155.364H169.522V150.311Z" fill="black"/>
<path d="M175.799 150.311H170.891V155.364H175.799V150.311Z" fill="black"/>
<path d="M169.522 158.891H164.614V163.944H169.522V158.891Z" fill="black"/>
<path d="M175.799 158.891H170.891V163.944H175.799V158.891Z" fill="black"/>
<path d="M169.522 167.476H164.614V172.53H169.522V167.476Z" fill="black"/>
<path d="M175.799 167.476H170.891V172.53H175.799V167.476Z" fill="black"/>
<path d="M169.522 176.056H164.614V181.11H169.522V176.056Z" fill="black"/>
<path d="M175.799 176.056H170.891V181.11H175.799V176.056Z" fill="black"/>
<path d="M169.522 184.642H164.614V189.695H169.522V184.642Z" fill="black"/>
<path d="M175.799 184.642H170.891V189.695H175.799V184.642Z" fill="black"/>
<path d="M169.522 193.221H164.614V198.275H169.522V193.221Z" fill="black"/>
<path d="M175.799 193.221H170.891V198.275H175.799V193.221Z" fill="black"/>
<path d="M169.522 201.807H164.614V206.861H169.522V201.807Z" fill="black"/>
<path d="M175.799 201.807H170.891V206.861H175.799V201.807Z" fill="black"/>
<path d="M169.522 210.387H164.614V215.44H169.522V210.387Z" fill="black"/>
<path d="M177.122 215.44H182.03V210.387H177.122V215.44Z" fill="black"/>
<path d="M177.122 206.854H182.03V201.801H177.122V206.854Z" fill="black"/>
<path d="M177.122 198.275H182.03V193.221H177.122V198.275Z" fill="black"/>
<path d="M177.122 189.689H182.03V184.635H177.122V189.689Z" fill="black"/>
<path d="M177.122 181.109H182.03V176.056H177.122V181.109Z" fill="black"/>
<path d="M177.122 172.523H182.03V167.47H177.122V172.523Z" fill="black"/>
<path d="M177.122 163.944H182.03V158.89H177.122V163.944Z" fill="black"/>
<path d="M177.122 155.358H182.03V150.305H177.122V155.358Z" fill="black"/>
<path d="M177.122 146.778H182.03V141.725H177.122V146.778Z" fill="black"/>
<path d="M177.122 138.193H182.03V133.139H177.122V138.193Z" fill="black"/>
<path d="M177.122 129.613H182.03V124.559H177.122V129.613Z" fill="black"/>
<path d="M177.122 121.027H182.03V115.974H177.122V121.027Z" fill="black"/>
<path d="M177.122 112.447H182.03V107.394H177.122V112.447Z" fill="black"/>
<path d="M177.122 103.862H182.03V98.8083H177.122V103.862Z" fill="black"/>
<path d="M175.799 210.387H170.891V215.44H175.799V210.387Z" fill="black"/>
<path d="M205.858 94.5127H185.947V226.906H205.858V94.5127Z" fill="#A6A6A6"/>
<path d="M199.749 215.44H203.806V210.387H199.749V215.44Z" fill="#C7C7C7"/>
<path d="M194.562 215.44H198.618V210.387H194.562V215.44Z" fill="#C7C7C7"/>
<path d="M199.749 206.854H203.806V201.801H199.749V206.854Z" fill="#C7C7C7"/>
<path d="M194.562 206.854H198.618V201.801H194.562V206.854Z" fill="#C7C7C7"/>
<path d="M199.749 198.275H203.806V193.221H199.749V198.275Z" fill="#C7C7C7"/>
<path d="M194.562 198.275H198.618V193.221H194.562V198.275Z" fill="#C7C7C7"/>
<path d="M199.749 189.689H203.806V184.635H199.749V189.689Z" fill="#C7C7C7"/>
<path d="M194.562 189.689H198.618V184.635H194.562V189.689Z" fill="#C7C7C7"/>
<path d="M199.749 181.109H203.806V176.056H199.749V181.109Z" fill="#C7C7C7"/>
<path d="M194.562 181.109H198.618V176.056H194.562V181.109Z" fill="#C7C7C7"/>
<path d="M199.749 172.523H203.806V167.47H199.749V172.523Z" fill="#C7C7C7"/>
<path d="M194.562 172.523H198.618V167.47H194.562V172.523Z" fill="#C7C7C7"/>
<path d="M199.749 163.944H203.806V158.89H199.749V163.944Z" fill="#C7C7C7"/>
<path d="M194.562 163.944H198.618V158.89H194.562V163.944Z" fill="#C7C7C7"/>
<path d="M199.749 155.358H203.806V150.305H199.749V155.358Z" fill="#C7C7C7"/>
<path d="M194.562 155.358H198.618V150.305H194.562V155.358Z" fill="#C7C7C7"/>
<path d="M199.749 146.778H203.806V141.725H199.749V146.778Z" fill="#C7C7C7"/>
<path d="M194.562 146.778H198.618V141.725H194.562V146.778Z" fill="#C7C7C7"/>
<path d="M199.749 138.193H203.806V133.139H199.749V138.193Z" fill="#C7C7C7"/>
<path d="M194.562 138.193H198.618V133.139H194.562V138.193Z" fill="#C7C7C7"/>
<path d="M199.749 129.613H203.806V124.559H199.749V129.613Z" fill="#C7C7C7"/>
<path d="M194.562 129.613H198.618V124.559H194.562V129.613Z" fill="#C7C7C7"/>
<path d="M199.749 121.027H203.806V115.974H199.749V121.027Z" fill="#C7C7C7"/>
<path d="M194.562 121.027H198.618V115.974H194.562V121.027Z" fill="#C7C7C7"/>
<path d="M199.749 112.447H203.806V107.394H199.749V112.447Z" fill="#C7C7C7"/>
<path d="M194.562 112.447H198.618V107.394H194.562V112.447Z" fill="#C7C7C7"/>
<path d="M199.749 103.862H203.806V98.8083H199.749V103.862Z" fill="#C7C7C7"/>
<path d="M193.483 98.814H189.426V103.867H193.483V98.814Z" fill="#C7C7C7"/>
<path d="M193.483 107.394H189.426V112.448H193.483V107.394Z" fill="#C7C7C7"/>
<path d="M193.483 115.979H189.426V121.033H193.483V115.979Z" fill="#C7C7C7"/>
<path d="M193.483 124.56H189.426V129.613H193.483V124.56Z" fill="#C7C7C7"/>
<path d="M193.483 133.145H189.426V138.198H193.483V133.145Z" fill="#C7C7C7"/>
<path d="M193.483 141.725H189.426V146.779H193.483V141.725Z" fill="#C7C7C7"/>
<path d="M193.483 150.311H189.426V155.364H193.483V150.311Z" fill="#C7C7C7"/>
<path d="M193.483 158.891H189.426V163.944H193.483V158.891Z" fill="#C7C7C7"/>
<path d="M193.483 167.476H189.426V172.53H193.483V167.476Z" fill="#C7C7C7"/>
<path d="M193.483 176.056H189.426V181.11H193.483V176.056Z" fill="#C7C7C7"/>
<path d="M193.483 184.642H189.426V189.695H193.483V184.642Z" fill="#C7C7C7"/>
<path d="M193.483 193.221H189.426V198.275H193.483V193.221Z" fill="#C7C7C7"/>
<path d="M193.483 201.807H189.426V206.861H193.483V201.807Z" fill="#C7C7C7"/>
<path d="M193.483 210.387H189.426V215.44H193.483V210.387Z" fill="#C7C7C7"/>
<path d="M194.562 103.862H198.618V98.8083H194.562V103.862Z" fill="#C7C7C7"/>
<path d="M57.7156 91.6216H31.37V226.905H57.7156V91.6216Z" fill="black"/>
<path d="M57.7156 88.9287H30.7346V91.6216H57.7156V88.9287Z" fill="#C7C7C7"/>
<path d="M36.4177 95.5908H33.7481V226.905H36.4177V95.5908Z" fill="black"/>
<path d="M41.1506 95.5908H38.481V226.905H41.1506V95.5908Z" fill="black"/>
<path d="M45.8776 95.5908H43.2081V226.905H45.8776V95.5908Z" fill="black"/>
<path d="M50.6047 95.5908H47.9352V226.905H50.6047V95.5908Z" fill="black"/>
<path d="M55.3317 95.5908H52.6622V226.905H55.3317V95.5908Z" fill="black"/>
<path d="M36.4177 98.9946H33.7481V104.31H36.4177V98.9946Z" fill="black"/>
<path d="M41.1506 98.9946H38.481V104.31H41.1506V98.9946Z" fill="black"/>
<path d="M45.8776 98.9946H43.2081V104.31H45.8776V98.9946Z" fill="black"/>
<path d="M50.6047 98.9946H47.9352V104.31H50.6047V98.9946Z" fill="black"/>
<path d="M55.3317 98.9946H52.6622V104.31H55.3317V98.9946Z" fill="black"/>
<path d="M36.4177 107.639H33.7481V112.954H36.4177V107.639Z" fill="black"/>
<path d="M41.1506 107.639H38.481V112.954H41.1506V107.639Z" fill="black"/>
<path d="M45.8776 107.639H43.2081V112.954H45.8776V107.639Z" fill="black"/>
<path d="M50.6047 107.639H47.9352V112.954H50.6047V107.639Z" fill="black"/>
<path d="M55.3317 107.639H52.6622V112.954H55.3317V107.639Z" fill="black"/>
<path d="M36.4177 116.283H33.7481V121.598H36.4177V116.283Z" fill="black"/>
<path d="M41.1506 116.283H38.481V121.598H41.1506V116.283Z" fill="black"/>
<path d="M45.8776 116.283H43.2081V121.598H45.8776V116.283Z" fill="black"/>
<path d="M50.6047 116.283H47.9352V121.598H50.6047V116.283Z" fill="black"/>
<path d="M55.3317 116.283H52.6622V121.598H55.3317V116.283Z" fill="black"/>
<path d="M36.4177 124.927H33.7481V130.243H36.4177V124.927Z" fill="black"/>
<path d="M41.1506 124.927H38.481V130.243H41.1506V124.927Z" fill="black"/>
<path d="M45.8776 124.927H43.2081V130.243H45.8776V124.927Z" fill="black"/>
<path d="M50.6047 124.927H47.9352V130.243H50.6047V124.927Z" fill="black"/>
<path d="M55.3317 124.927H52.6622V130.243H55.3317V124.927Z" fill="black"/>
<path d="M36.4177 133.57H33.7481V138.886H36.4177V133.57Z" fill="black"/>
<path d="M41.1506 133.57H38.481V138.886H41.1506V133.57Z" fill="black"/>
<path d="M45.8776 133.57H43.2081V138.886H45.8776V133.57Z" fill="black"/>
<path d="M50.6047 133.57H47.9352V138.886H50.6047V133.57Z" fill="black"/>
<path d="M55.3317 133.57H52.6622V138.886H55.3317V133.57Z" fill="black"/>
<path d="M36.4177 142.209H33.7481V147.525H36.4177V142.209Z" fill="black"/>
<path d="M41.1506 142.209H38.481V147.525H41.1506V142.209Z" fill="black"/>
<path d="M45.8776 142.209H43.2081V147.525H45.8776V142.209Z" fill="black"/>
<path d="M50.6047 142.209H47.9352V147.525H50.6047V142.209Z" fill="black"/>
<path d="M55.3317 142.209H52.6622V147.525H55.3317V142.209Z" fill="black"/>
<path d="M36.4177 150.853H33.7481V156.168H36.4177V150.853Z" fill="black"/>
<path d="M41.1506 150.853H38.481V156.168H41.1506V150.853Z" fill="black"/>
<path d="M45.8776 150.853H43.2081V156.168H45.8776V150.853Z" fill="black"/>
<path d="M50.6047 150.853H47.9352V156.168H50.6047V150.853Z" fill="black"/>
<path d="M55.3317 150.853H52.6622V156.168H55.3317V150.853Z" fill="black"/>
<path d="M36.4177 159.497H33.7481V164.812H36.4177V159.497Z" fill="black"/>
<path d="M41.1506 159.497H38.481V164.812H41.1506V159.497Z" fill="black"/>
<path d="M45.8776 159.497H43.2081V164.812H45.8776V159.497Z" fill="black"/>
<path d="M50.6047 159.497H47.9352V164.812H50.6047V159.497Z" fill="black"/>
<path d="M55.3317 159.497H52.6622V164.812H55.3317V159.497Z" fill="black"/>
<path d="M36.4177 168.141H33.7481V173.456H36.4177V168.141Z" fill="black"/>
<path d="M41.1506 168.141H38.481V173.456H41.1506V168.141Z" fill="black"/>
<path d="M45.8776 168.141H43.2081V173.456H45.8776V168.141Z" fill="black"/>
<path d="M50.6047 168.141H47.9352V173.456H50.6047V168.141Z" fill="black"/>
<path d="M55.3317 168.141H52.6622V173.456H55.3317V168.141Z" fill="black"/>
<path d="M36.4177 176.785H33.7481V182.1H36.4177V176.785Z" fill="black"/>
<path d="M41.1506 176.785H38.481V182.1H41.1506V176.785Z" fill="black"/>
<path d="M45.8776 176.785H43.2081V182.1H45.8776V176.785Z" fill="black"/>
<path d="M50.6047 176.785H47.9352V182.1H50.6047V176.785Z" fill="black"/>
<path d="M55.3317 176.785H52.6622V182.1H55.3317V176.785Z" fill="black"/>
<path d="M36.4177 185.423H33.7481V190.739H36.4177V185.423Z" fill="black"/>
<path d="M41.1506 185.423H38.481V190.739H41.1506V185.423Z" fill="black"/>
<path d="M45.8776 185.423H43.2081V190.739H45.8776V185.423Z" fill="black"/>
<path d="M50.6047 185.423H47.9352V190.739H50.6047V185.423Z" fill="black"/>
<path d="M55.3317 185.423H52.6622V190.739H55.3317V185.423Z" fill="black"/>
<path d="M36.4177 194.066H33.7481V199.382H36.4177V194.066Z" fill="black"/>
<path d="M41.1506 194.066H38.481V199.382H41.1506V194.066Z" fill="black"/>
<path d="M45.8776 194.066H43.2081V199.382H45.8776V194.066Z" fill="black"/>
<path d="M50.6047 194.066H47.9352V199.382H50.6047V194.066Z" fill="black"/>
<path d="M55.3317 194.066H52.6622V199.382H55.3317V194.066Z" fill="black"/>
<path d="M36.4177 202.71H33.7481V208.026H36.4177V202.71Z" fill="black"/>
<path d="M41.1506 202.71H38.481V208.026H41.1506V202.71Z" fill="black"/>
<path d="M45.8776 202.71H43.2081V208.026H45.8776V202.71Z" fill="black"/>
<path d="M50.6047 202.71H47.9352V208.026H50.6047V202.71Z" fill="black"/>
<path d="M55.3317 202.71H52.6622V208.026H55.3317V202.71Z" fill="black"/>
<path d="M36.4177 211.354H33.7481V226.911H36.4177V211.354Z" fill="black"/>
<path d="M41.1506 211.354H38.481V226.911H41.1506V211.354Z" fill="black"/>
<path d="M45.8776 211.354H43.2081V226.911H45.8776V211.354Z" fill="black"/>
<path d="M50.6047 211.354H47.9352V226.911H50.6047V211.354Z" fill="black"/>
<path d="M55.3317 211.354H52.6622V226.911H55.3317V211.354Z" fill="black"/>
<path d="M74.6306 91.6216H57.7157V226.905H74.6306V91.6216Z" fill="#DBDBDB"/>
<path d="M75.365 88.9287H57.7157V91.6216H75.365V88.9287Z" fill="#C7C7C7"/>
<path d="M62.7691 95.5908H60.0996V226.905H62.7691V95.5908Z" fill="#C7C7C7"/>
<path d="M67.4962 95.5908H64.8266V226.905H67.4962V95.5908Z" fill="#C7C7C7"/>
<path d="M72.2232 95.5908H69.5537V226.905H72.2232V95.5908Z" fill="#C7C7C7"/>
<path d="M62.7691 98.9946H60.0996V104.31H62.7691V98.9946Z" fill="#DBDBDB"/>
<path d="M67.4962 98.9946H64.8266V104.31H67.4962V98.9946Z" fill="#DBDBDB"/>
<path d="M72.2232 98.9946H69.5537V104.31H72.2232V98.9946Z" fill="#DBDBDB"/>
<path d="M62.7691 107.639H60.0996V112.954H62.7691V107.639Z" fill="#DBDBDB"/>
<path d="M67.4962 107.639H64.8266V112.954H67.4962V107.639Z" fill="#DBDBDB"/>
<path d="M72.2232 107.639H69.5537V112.954H72.2232V107.639Z" fill="#DBDBDB"/>
<path d="M62.7691 116.283H60.0996V121.598H62.7691V116.283Z" fill="#DBDBDB"/>
<path d="M67.4962 116.283H64.8266V121.598H67.4962V116.283Z" fill="#DBDBDB"/>
<path d="M72.2232 116.283H69.5537V121.598H72.2232V116.283Z" fill="#DBDBDB"/>
<path d="M62.7691 124.927H60.0996V130.243H62.7691V124.927Z" fill="#DBDBDB"/>
<path d="M67.4962 124.927H64.8266V130.243H67.4962V124.927Z" fill="#DBDBDB"/>
<path d="M72.2232 124.927H69.5537V130.243H72.2232V124.927Z" fill="#DBDBDB"/>
<path d="M62.7691 133.57H60.0996V138.886H62.7691V133.57Z" fill="#DBDBDB"/>
<path d="M67.4962 133.57H64.8266V138.886H67.4962V133.57Z" fill="#DBDBDB"/>
<path d="M72.2232 133.57H69.5537V138.886H72.2232V133.57Z" fill="#DBDBDB"/>
<path d="M62.7691 142.209H60.0996V147.525H62.7691V142.209Z" fill="#DBDBDB"/>
<path d="M67.4962 142.209H64.8266V147.525H67.4962V142.209Z" fill="#DBDBDB"/>
<path d="M72.2232 142.209H69.5537V147.525H72.2232V142.209Z" fill="#DBDBDB"/>
<path d="M62.7691 150.853H60.0996V156.168H62.7691V150.853Z" fill="#DBDBDB"/>
<path d="M67.4962 150.853H64.8266V156.168H67.4962V150.853Z" fill="#DBDBDB"/>
<path d="M72.2232 150.853H69.5537V156.168H72.2232V150.853Z" fill="#DBDBDB"/>
<path d="M62.7691 159.497H60.0996V164.812H62.7691V159.497Z" fill="#DBDBDB"/>
<path d="M67.4962 159.497H64.8266V164.812H67.4962V159.497Z" fill="#DBDBDB"/>
<path d="M72.2232 159.497H69.5537V164.812H72.2232V159.497Z" fill="#DBDBDB"/>
<path d="M62.7691 168.141H60.0996V173.456H62.7691V168.141Z" fill="#DBDBDB"/>
<path d="M67.4962 168.141H64.8266V173.456H67.4962V168.141Z" fill="#DBDBDB"/>
<path d="M72.2232 168.141H69.5537V173.456H72.2232V168.141Z" fill="#DBDBDB"/>
<path d="M62.7691 176.785H60.0996V182.1H62.7691V176.785Z" fill="#DBDBDB"/>
<path d="M67.4962 176.785H64.8266V182.1H67.4962V176.785Z" fill="#DBDBDB"/>
<path d="M72.2232 176.785H69.5537V182.1H72.2232V176.785Z" fill="#DBDBDB"/>
<path d="M62.7691 185.423H60.0996V190.739H62.7691V185.423Z" fill="#DBDBDB"/>
<path d="M67.4962 185.423H64.8266V190.739H67.4962V185.423Z" fill="#DBDBDB"/>
<path d="M72.2232 185.423H69.5537V190.739H72.2232V185.423Z" fill="#DBDBDB"/>
<path d="M62.7691 194.066H60.0996V199.382H62.7691V194.066Z" fill="#DBDBDB"/>
<path d="M67.4962 194.066H64.8266V199.382H67.4962V194.066Z" fill="#DBDBDB"/>
<path d="M72.2232 194.066H69.5537V199.382H72.2232V194.066Z" fill="#DBDBDB"/>
<path d="M62.7691 202.71H60.0996V208.026H62.7691V202.71Z" fill="#DBDBDB"/>
<path d="M67.4962 202.71H64.8266V208.026H67.4962V202.71Z" fill="#DBDBDB"/>
<path d="M72.2232 202.71H69.5537V208.026H72.2232V202.71Z" fill="#DBDBDB"/>
<path d="M62.7691 211.354H60.0996V226.911H62.7691V211.354Z" fill="#DBDBDB"/>
<path d="M67.4962 211.354H64.8266V226.911H67.4962V211.354Z" fill="#DBDBDB"/>
<path d="M72.2232 211.354H69.5537V226.911H72.2232V211.354Z" fill="#DBDBDB"/>
<path d="M26.9461 132.143H1.95847V226.911H26.9461V132.143Z" fill="black"/>
<path d="M26.9402 125.854H5.50815V132.137H26.9402V125.854Z" fill="#C7C7C7"/>
<path d="M24.2065 135.418H4.69791V206.26H24.2065V135.418Z" fill="#DBDBDB"/>
<path d="M24.2065 142.18H4.69791V143.853H24.2065V142.18Z" fill="black"/>
<path d="M24.2065 149.116H4.69791V150.789H24.2065V149.116Z" fill="black"/>
<path d="M24.2065 156.052H4.69791V157.725H24.2065V156.052Z" fill="black"/>
<path d="M24.2065 162.982H4.69791V164.655H24.2065V162.982Z" fill="black"/>
<path d="M24.2065 169.918H4.69791V171.591H24.2065V169.918Z" fill="black"/>
<path d="M24.2065 176.854H4.69791V178.527H24.2065V176.854Z" fill="black"/>
<path d="M24.2065 183.785H4.69791V185.457H24.2065V183.785Z" fill="black"/>
<path d="M24.2065 190.721H4.69791V192.394H24.2065V190.721Z" fill="black"/>
<path d="M24.2065 197.657H4.69791V199.33H24.2065V197.657Z" fill="black"/>
<path d="M24.2065 204.593H4.69791V206.266H24.2065V204.593Z" fill="black"/>
<path d="M42.596 132.143H26.946V226.911H42.596V132.143Z" fill="#DBDBDB"/>
<path d="M40.247 125.854H26.946V132.137H40.247V125.854Z" fill="#A6A6A6"/>
<path d="M41.1388 135.418H29.1026V206.26H41.1388V135.418Z" fill="#C7C7C7"/>
<path d="M41.1388 142.18H29.1026V143.853H41.1388V142.18Z" fill="black"/>
<path d="M41.1388 149.116H29.1026V150.789H41.1388V149.116Z" fill="black"/>
<path d="M41.1388 156.052H29.1026V157.725H41.1388V156.052Z" fill="black"/>
<path d="M41.1388 162.982H29.1026V164.655H41.1388V162.982Z" fill="black"/>
<path d="M41.1388 169.918H29.1026V171.591H41.1388V169.918Z" fill="black"/>
<path d="M41.1388 176.854H29.1026V178.527H41.1388V176.854Z" fill="black"/>
<path d="M41.1388 183.785H29.1026V185.457H41.1388V183.785Z" fill="black"/>
<path d="M41.1388 190.721H29.1026V192.394H41.1388V190.721Z" fill="black"/>
<path d="M41.1388 197.657H29.1026V199.33H41.1388V197.657Z" fill="black"/>
<path d="M41.1388 204.593H29.1026V206.266H41.1388V204.593Z" fill="black"/>
<path d="M220.662 133.74H207.315V149.506H220.662V133.74Z" fill="#DBDBDB"/>
<path d="M229.126 133.74H220.663V150.083H229.126V133.74Z" fill="#C7C7C7"/>
<path d="M229.685 140.699H221.286V150.083H229.685V140.699Z" fill="#DBDBDB"/>
<path d="M234.925 140.699H229.685V150.083H234.925V140.699Z" fill="#C7C7C7"/>
<path d="M223.775 148.48H202.197V226.911H223.775V148.48Z" fill="black"/>
<path d="M211.447 151.849H204.663V154.624H211.447V151.849Z" fill="black"/>
<path d="M220.126 151.849H213.342V154.624H220.126V151.849Z" fill="black"/>
<path d="M211.447 156.559H204.663V159.334H211.447V156.559Z" fill="black"/>
<path d="M220.126 156.559H213.342V159.334H220.126V156.559Z" fill="black"/>
<path d="M211.447 161.263H204.663V164.037H211.447V161.263Z" fill="black"/>
<path d="M220.126 161.263H213.342V164.037H220.126V161.263Z" fill="black"/>
<path d="M211.447 165.972H204.663V168.747H211.447V165.972Z" fill="black"/>
<path d="M220.126 165.972H213.342V168.747H220.126V165.972Z" fill="black"/>
<path d="M211.447 170.682H204.663V173.456H211.447V170.682Z" fill="black"/>
<path d="M220.126 170.682H213.342V173.456H220.126V170.682Z" fill="black"/>
<path d="M211.447 175.386H204.663V178.16H211.447V175.386Z" fill="black"/>
<path d="M220.126 175.386H213.342V178.16H220.126V175.386Z" fill="black"/>
<path d="M211.447 180.095H204.663V182.87H211.447V180.095Z" fill="black"/>
<path d="M220.126 180.095H213.342V182.87H220.126V180.095Z" fill="black"/>
<path d="M211.447 184.805H204.663V187.579H211.447V184.805Z" fill="black"/>
<path d="M220.126 184.805H213.342V187.579H220.126V184.805Z" fill="black"/>
<path d="M211.447 189.509H204.663V192.283H211.447V189.509Z" fill="black"/>
<path d="M220.126 189.509H213.342V192.283H220.126V189.509Z" fill="black"/>
<path d="M211.447 194.218H204.663V196.992H211.447V194.218Z" fill="black"/>
<path d="M220.126 194.218H213.342V196.992H220.126V194.218Z" fill="black"/>
<path d="M211.447 198.928H204.663V201.702H211.447V198.928Z" fill="black"/>
<path d="M220.126 198.928H213.342V201.702H220.126V198.928Z" fill="black"/>
<path d="M211.447 203.631H204.663V206.406H211.447V203.631Z" fill="black"/>
<path d="M220.126 203.631H213.342V206.406H220.126V203.631Z" fill="black"/>
<path d="M211.447 208.341H204.663V211.115H211.447V208.341Z" fill="black"/>
<path d="M220.126 208.341H213.342V211.115H220.126V208.341Z" fill="black"/>
<path d="M211.447 213.045H204.663V215.819H211.447V213.045Z" fill="black"/>
<path d="M220.126 213.045H213.342V215.819H220.126V213.045Z" fill="black"/>
<path d="M241.261 148.48H223.775V226.911H241.261V148.48Z" fill="#C7C7C7"/>
<path d="M233.934 215.825H239.507V213.051H233.934V215.825Z" fill="black"/>
<path d="M226.812 215.825H232.384V213.051H226.812V215.825Z" fill="black"/>
<path d="M233.934 211.109H239.507V208.335H233.934V211.109Z" fill="black"/>
<path d="M226.812 211.109H232.384V208.335H226.812V211.109Z" fill="black"/>
<path d="M233.934 206.406H239.507V203.631H233.934V206.406Z" fill="black"/>
<path d="M226.812 206.406H232.384V203.631H226.812V206.406Z" fill="black"/>
<path d="M233.934 201.696H239.507V198.922H233.934V201.696Z" fill="black"/>
<path d="M226.812 201.696H232.384V198.922H226.812V201.696Z" fill="black"/>
<path d="M233.934 196.986H239.507V194.212H233.934V196.986Z" fill="black"/>
<path d="M226.812 196.986H232.384V194.212H226.812V196.986Z" fill="black"/>
<path d="M233.934 192.283H239.507V189.509H233.934V192.283Z" fill="black"/>
<path d="M226.812 192.283H232.384V189.509H226.812V192.283Z" fill="black"/>
<path d="M233.934 187.573H239.507V184.799H233.934V187.573Z" fill="black"/>
<path d="M226.812 187.573H232.384V184.799H226.812V187.573Z" fill="black"/>
<path d="M233.934 182.87H239.507V180.095H233.934V182.87Z" fill="black"/>
<path d="M226.812 182.87H232.384V180.095H226.812V182.87Z" fill="black"/>
<path d="M233.934 178.16H239.507V175.386H233.934V178.16Z" fill="black"/>
<path d="M226.812 178.16H232.384V175.386H226.812V178.16Z" fill="black"/>
<path d="M233.934 173.451H239.507V170.676H233.934V173.451Z" fill="black"/>
<path d="M226.812 173.451H232.384V170.676H226.812V173.451Z" fill="black"/>
<path d="M233.934 168.747H239.507V165.972H233.934V168.747Z" fill="black"/>
<path d="M226.812 168.747H232.384V165.972H226.812V168.747Z" fill="black"/>
<path d="M233.934 164.037H239.507V161.263H233.934V164.037Z" fill="black"/>
<path d="M226.812 164.037H232.384V161.263H226.812V164.037Z" fill="black"/>
<path d="M233.934 159.328H239.507V156.553H233.934V159.328Z" fill="black"/>
<path d="M226.812 159.328H232.384V156.553H226.812V159.328Z" fill="black"/>
<path d="M233.934 154.624H239.507V151.85H233.934V154.624Z" fill="black"/>
<path d="M226.812 154.624H232.384V151.85H226.812V154.624Z" fill="black"/>
<path d="M145.828 175.799H120.374V226.905H145.828V175.799Z" fill="#C7C7C7"/>
<path d="M128.884 180.223H124.378V183.353H128.884V180.223Z" fill="#DBDBDB"/>
<path d="M128.884 186.915H124.378V190.045H128.884V186.915Z" fill="#DBDBDB"/>
<path d="M128.884 193.6H124.378V196.73H128.884V193.6Z" fill="#DBDBDB"/>
<path d="M128.884 200.286H124.378V203.416H128.884V200.286Z" fill="#DBDBDB"/>
<path d="M128.884 206.977H124.378V210.107H128.884V206.977Z" fill="#DBDBDB"/>
<path d="M128.884 213.663H124.378V216.793H128.884V213.663Z" fill="#DBDBDB"/>
<path d="M128.884 220.348H124.378V223.478H128.884V220.348Z" fill="#DBDBDB"/>
<path d="M135.365 180.223H130.86V183.353H135.365V180.223Z" fill="#DBDBDB"/>
<path d="M135.365 186.915H130.86V190.045H135.365V186.915Z" fill="#DBDBDB"/>
<path d="M135.365 193.6H130.86V196.73H135.365V193.6Z" fill="#DBDBDB"/>
<path d="M135.365 200.286H130.86V203.416H135.365V200.286Z" fill="#DBDBDB"/>
<path d="M135.365 206.977H130.86V210.107H135.365V206.977Z" fill="#DBDBDB"/>
<path d="M135.365 213.663H130.86V216.793H135.365V213.663Z" fill="#DBDBDB"/>
<path d="M135.365 220.348H130.86V223.478H135.365V220.348Z" fill="#DBDBDB"/>
<path d="M141.83 180.223H137.324V183.353H141.83V180.223Z" fill="#DBDBDB"/>
<path d="M141.83 186.915H137.324V190.045H141.83V186.915Z" fill="#DBDBDB"/>
<path d="M141.83 193.6H137.324V196.73H141.83V193.6Z" fill="#DBDBDB"/>
<path d="M141.83 200.286H137.324V203.416H141.83V200.286Z" fill="#DBDBDB"/>
<path d="M141.83 206.977H137.324V210.107H141.83V206.977Z" fill="#DBDBDB"/>
<path d="M141.83 213.663H137.324V216.793H141.83V213.663Z" fill="#DBDBDB"/>
<path d="M141.83 220.348H137.324V223.478H141.83V220.348Z" fill="#DBDBDB"/>
<path d="M145.828 170.478H128.884V175.805H145.828V170.478Z" fill="#DBDBDB"/>
<path d="M145.828 167.179H135.086V170.478H145.828V167.179Z" fill="black"/>
<path d="M163.687 175.799H145.828V226.905H163.687V175.799Z" fill="#A6A6A6"/>
<path d="M158.196 222.983H161.863V219.853H158.196V222.983Z" fill="#C7C7C7"/>
<path d="M158.196 216.297H161.863V213.167H158.196V216.297Z" fill="#C7C7C7"/>
<path d="M158.196 209.606H161.863V206.476H158.196V209.606Z" fill="#C7C7C7"/>
<path d="M158.196 202.92H161.863V199.79H158.196V202.92Z" fill="#C7C7C7"/>
<path d="M158.196 196.235H161.863V193.105H158.196V196.235Z" fill="#C7C7C7"/>
<path d="M158.196 189.543H161.863V186.413H158.196V189.543Z" fill="#C7C7C7"/>
<path d="M158.196 182.852H161.863V179.722H158.196V182.852Z" fill="#C7C7C7"/>
<path d="M152.921 222.983H156.588V219.853H152.921V222.983Z" fill="#C7C7C7"/>
<path d="M152.921 216.297H156.588V213.167H152.921V216.297Z" fill="#C7C7C7"/>
<path d="M152.921 209.606H156.588V206.476H152.921V209.606Z" fill="#C7C7C7"/>
<path d="M152.921 202.92H156.588V199.79H152.921V202.92Z" fill="#C7C7C7"/>
<path d="M152.921 196.235H156.588V193.105H152.921V196.235Z" fill="#C7C7C7"/>
<path d="M152.921 189.543H156.588V186.413H152.921V189.543Z" fill="#C7C7C7"/>
<path d="M152.921 182.852H156.588V179.722H152.921V182.852Z" fill="#C7C7C7"/>
<path d="M147.658 222.983H151.324V219.853H147.658V222.983Z" fill="#C7C7C7"/>
<path d="M147.658 216.297H151.324V213.167H147.658V216.297Z" fill="#C7C7C7"/>
<path d="M147.658 209.606H151.324V206.476H147.658V209.606Z" fill="#C7C7C7"/>
<path d="M147.658 202.92H151.324V199.79H147.658V202.92Z" fill="#C7C7C7"/>
<path d="M147.658 196.235H151.324V193.105H147.658V196.235Z" fill="#C7C7C7"/>
<path d="M147.658 189.543H151.324V186.413H147.658V189.543Z" fill="#C7C7C7"/>
<path d="M147.658 182.852H151.324V179.722H147.658V182.852Z" fill="#C7C7C7"/>
<path d="M160.983 170.478H145.828V175.805H160.983V170.478Z" fill="#C7C7C7"/>
<path d="M154.041 167.179H145.828V170.478H154.041V167.179Z" fill="#DBDBDB"/>
<path d="M212.951 104.561H174.482V222.674H212.951V104.561Z" fill="#455A64"/>
<path d="M212.805 92.6763H184.023V104.555H212.805V92.6763Z" fill="#37474F"/>
<path d="M188.879 94.5122H186.419V102.725H188.879V94.5122Z" fill="#455A64"/>
<path d="M193.18 94.5122H190.721V102.725H193.18V94.5122Z" fill="#455A64"/>
<path d="M197.488 94.5122H195.028V102.725H197.488V94.5122Z" fill="#455A64"/>
<path d="M201.795 94.5122H199.335V102.725H201.795V94.5122Z" fill="#455A64"/>
<path d="M206.102 94.5122H203.643V102.725H206.102V94.5122Z" fill="#455A64"/>
<path d="M210.41 94.5122H207.95V102.725H210.41V94.5122Z" fill="#455A64"/>
<path d="M225.897 92.6763H212.805V104.555H225.897V92.6763Z" fill="#455A64"/>
<path d="M216.734 94.5122H214.641V102.725H216.734V94.5122Z" fill="#37474F"/>
<path d="M220.394 94.5122H218.302V102.725H220.394V94.5122Z" fill="#37474F"/>
<path d="M224.055 94.5122H221.962V102.725H224.055V94.5122Z" fill="#37474F"/>
<path d="M232.384 104.561H212.805V222.674H232.384V104.561Z" fill="#37474F"/>
<path d="M190.359 86.6553H189.479V92.6763H190.359V86.6553Z" fill="#263238"/>
<path d="M207.344 86.6553H206.464V92.6763H207.344V86.6553Z" fill="#263238"/>
<path d="M211.249 76.1284H185.579V86.655H211.249V76.1284Z" fill="#FFB900"/>
<path d="M189.456 112.692H182.356V123.562H189.456V112.692Z" fill="#263238"/>
<path d="M203.905 112.692H196.806V123.562H203.905V112.692Z" fill="#263238"/>
<path d="M189.456 129.828H182.356V140.699H189.456V129.828Z" fill="#263238"/>
<path d="M203.905 129.828H196.806V140.699H203.905V129.828Z" fill="#263238"/>
<path d="M189.456 146.959H182.356V157.83H189.456V146.959Z" fill="#263238"/>
<path d="M203.905 146.959H196.806V157.83H203.905V146.959Z" fill="#263238"/>
<path d="M189.456 164.095H182.356V174.966H189.456V164.095Z" fill="#263238"/>
<path d="M203.905 164.095H196.806V174.966H203.905V164.095Z" fill="#263238"/>
<path d="M189.456 181.226H182.356V192.096H189.456V181.226Z" fill="#263238"/>
<path d="M203.905 181.226H196.806V192.096H203.905V181.226Z" fill="#263238"/>
<path d="M189.456 198.356H182.356V209.227H189.456V198.356Z" fill="#263238"/>
<path d="M203.905 198.356H196.806V209.227H203.905V198.356Z" fill="#263238"/>
<path d="M220.482 112.692H216.402V123.562H220.482V112.692Z" fill="#263238"/>
<path d="M228.788 112.692H224.707V123.562H228.788V112.692Z" fill="#263238"/>
<path d="M220.482 129.828H216.402V140.699H220.482V129.828Z" fill="#263238"/>
<path d="M228.788 129.828H224.707V140.699H228.788V129.828Z" fill="#263238"/>
<path d="M220.482 146.959H216.402V157.83H220.482V146.959Z" fill="#263238"/>
<path d="M228.788 146.959H224.707V157.83H228.788V146.959Z" fill="#263238"/>
<path d="M220.482 164.095H216.402V174.966H220.482V164.095Z" fill="#263238"/>
<path d="M228.788 164.095H224.707V174.966H228.788V164.095Z" fill="#263238"/>
<path d="M220.482 181.226H216.402V192.096H220.482V181.226Z" fill="#263238"/>
<path d="M228.788 181.226H224.707V192.096H228.788V181.226Z" fill="#263238"/>
<path d="M220.482 198.356H216.402V209.227H220.482V198.356Z" fill="#263238"/>
<path d="M228.788 198.356H224.707V209.227H228.788V198.356Z" fill="#263238"/>
<path d="M111.013 71.145H90.4379V222.668H111.013V71.145Z" fill="#37474F"/>
<path d="M111.013 79.6377H90.4379V81.2289H111.013V79.6377Z" fill="#455A64"/>
<path d="M96.3482 85.9092H92.5595V94.7688H96.3482V85.9092Z" fill="#263238"/>
<path d="M96.3482 97.0884H92.5595V105.948H96.3482V97.0884Z" fill="#263238"/>
<path d="M96.3482 108.262H92.5595V117.122H96.3482V108.262Z" fill="#263238"/>
<path d="M96.3482 119.436H92.5595V128.295H96.3482V119.436Z" fill="#263238"/>
<path d="M96.3482 130.615H92.5595V139.475H96.3482V130.615Z" fill="#263238"/>
<path d="M96.3482 141.794H92.5595V150.654H96.3482V141.794Z" fill="#263238"/>
<path d="M96.3482 152.962H92.5595V161.822H96.3482V152.962Z" fill="#263238"/>
<path d="M96.3482 164.142H92.5595V173.001H96.3482V164.142Z" fill="#263238"/>
<path d="M96.3482 175.321H92.5595V184.181H96.3482V175.321Z" fill="#263238"/>
<path d="M96.3482 186.495H92.5595V195.355H96.3482V186.495Z" fill="#263238"/>
<path d="M96.3482 197.668H92.5595V206.528H96.3482V197.668Z" fill="#263238"/>
<path d="M96.3482 208.848H92.5595V217.707H96.3482V208.848Z" fill="#263238"/>
<path d="M96.3482 85.9092H92.5595V94.7688H96.3482V85.9092Z" fill="#263238"/>
<path d="M96.3482 97.0884H92.5595V105.948H96.3482V97.0884Z" fill="#263238"/>
<path d="M96.3482 108.262H92.5595V117.122H96.3482V108.262Z" fill="#263238"/>
<path d="M96.3482 119.436H92.5595V128.295H96.3482V119.436Z" fill="#263238"/>
<path d="M96.3482 130.615H92.5595V139.475H96.3482V130.615Z" fill="#263238"/>
<path d="M96.3482 141.794H92.5595V150.654H96.3482V141.794Z" fill="#263238"/>
<path d="M96.3482 152.962H92.5595V161.822H96.3482V152.962Z" fill="#263238"/>
<path d="M96.3482 164.142H92.5595V173.001H96.3482V164.142Z" fill="#263238"/>
<path d="M96.3482 175.321H92.5595V184.181H96.3482V175.321Z" fill="#263238"/>
<path d="M96.3482 186.495H92.5595V195.355H96.3482V186.495Z" fill="#263238"/>
<path d="M96.3482 197.668H92.5595V206.528H96.3482V197.668Z" fill="#263238"/>
<path d="M96.3482 208.848H92.5595V217.707H96.3482V208.848Z" fill="#263238"/>
<path d="M102.62 85.9092H98.8311V94.7688H102.62V85.9092Z" fill="#263238"/>
<path d="M102.62 97.0884H98.8311V105.948H102.62V97.0884Z" fill="#263238"/>
<path d="M102.62 108.262H98.8311V117.122H102.62V108.262Z" fill="#263238"/>
<path d="M102.62 119.436H98.8311V128.295H102.62V119.436Z" fill="#263238"/>
<path d="M102.62 130.615H98.8311V139.475H102.62V130.615Z" fill="#263238"/>
<path d="M102.62 141.794H98.8311V150.654H102.62V141.794Z" fill="#263238"/>
<path d="M102.62 152.962H98.8311V161.822H102.62V152.962Z" fill="#263238"/>
<path d="M102.62 164.142H98.8311V173.001H102.62V164.142Z" fill="#263238"/>
<path d="M102.62 175.321H98.8311V184.181H102.62V175.321Z" fill="#263238"/>
<path d="M102.62 186.495H98.8311V195.355H102.62V186.495Z" fill="#263238"/>
<path d="M102.62 197.668H98.8311V206.528H102.62V197.668Z" fill="#263238"/>
<path d="M102.62 208.848H98.8311V217.707H102.62V208.848Z" fill="#263238"/>
<path d="M102.62 85.9092H98.8311V94.7688H102.62V85.9092Z" fill="#263238"/>
<path d="M102.62 97.0884H98.8311V105.948H102.62V97.0884Z" fill="#263238"/>
<path d="M102.62 108.262H98.8311V117.122H102.62V108.262Z" fill="#263238"/>
<path d="M102.62 119.436H98.8311V128.295H102.62V119.436Z" fill="#263238"/>
<path d="M102.62 130.615H98.8311V139.475H102.62V130.615Z" fill="#263238"/>
<path d="M102.62 141.794H98.8311V150.654H102.62V141.794Z" fill="#263238"/>
<path d="M102.62 152.962H98.8311V161.822H102.62V152.962Z" fill="#263238"/>
<path d="M102.62 164.142H98.8311V173.001H102.62V164.142Z" fill="#263238"/>
<path d="M102.62 175.321H98.8311V184.181H102.62V175.321Z" fill="#263238"/>
<path d="M102.62 186.495H98.8311V195.355H102.62V186.495Z" fill="#263238"/>
<path d="M102.62 197.668H98.8311V206.528H102.62V197.668Z" fill="#263238"/>
<path d="M102.62 208.848H98.8311V217.707H102.62V208.848Z" fill="#263238"/>
<path d="M108.891 85.9092H105.103V94.7688H108.891V85.9092Z" fill="#263238"/>
<path d="M108.891 97.0884H105.103V105.948H108.891V97.0884Z" fill="#263238"/>
<path d="M108.891 108.262H105.103V117.122H108.891V108.262Z" fill="#263238"/>
<path d="M108.891 119.436H105.103V128.295H108.891V119.436Z" fill="#263238"/>
<path d="M108.891 130.615H105.103V139.475H108.891V130.615Z" fill="#263238"/>
<path d="M108.891 141.794H105.103V150.654H108.891V141.794Z" fill="#263238"/>
<path d="M108.891 152.962H105.103V161.822H108.891V152.962Z" fill="#263238"/>
<path d="M108.891 164.142H105.103V173.001H108.891V164.142Z" fill="#263238"/>
<path d="M108.891 175.321H105.103V184.181H108.891V175.321Z" fill="#263238"/>
<path d="M108.891 186.495H105.103V195.355H108.891V186.495Z" fill="#263238"/>
<path d="M108.891 197.668H105.103V206.528H108.891V197.668Z" fill="#263238"/>
<path d="M108.891 208.848H105.103V217.707H108.891V208.848Z" fill="#263238"/>
<path d="M108.891 85.9092H105.103V94.7688H108.891V85.9092Z" fill="#263238"/>
<path d="M108.891 97.0884H105.103V105.948H108.891V97.0884Z" fill="#263238"/>
<path d="M108.891 108.262H105.103V117.122H108.891V108.262Z" fill="#263238"/>
<path d="M108.891 119.436H105.103V128.295H108.891V119.436Z" fill="#263238"/>
<path d="M108.891 130.615H105.103V139.475H108.891V130.615Z" fill="#263238"/>
<path d="M108.891 141.794H105.103V150.654H108.891V141.794Z" fill="#263238"/>
<path d="M108.891 152.962H105.103V161.822H108.891V152.962Z" fill="#263238"/>
<path d="M108.891 164.142H105.103V173.001H108.891V164.142Z" fill="#263238"/>
<path d="M108.891 175.321H105.103V184.181H108.891V175.321Z" fill="#263238"/>
<path d="M108.891 186.495H105.103V195.355H108.891V186.495Z" fill="#263238"/>
<path d="M108.891 197.668H105.103V206.528H108.891V197.668Z" fill="#263238"/>
<path d="M108.891 208.848H105.103V217.707H108.891V208.848Z" fill="#263238"/>
<path d="M90.4378 71.145H55.2617V222.668H90.4378V71.145Z" fill="#455A64"/>
<path d="M90.4378 79.6377H55.2617V81.2289H90.4378V79.6377Z" fill="#37474F"/>
<path d="M90.4379 62.6353H67.7993V71.1451H90.4379V62.6353Z" fill="#37474F"/>
<path d="M90.4379 71.145H101.075V62.6351H90.4379V71.145Z" fill="#263238"/>
<path d="M65.1822 85.9092H59.0329V94.7688H65.1822V85.9092Z" fill="#263238"/>
<path d="M65.1822 97.0884H59.0329V105.948H65.1822V97.0884Z" fill="#263238"/>
<path d="M65.1822 108.262H59.0329V117.122H65.1822V108.262Z" fill="#263238"/>
<path d="M65.1822 119.436H59.0329V128.295H65.1822V119.436Z" fill="#263238"/>
<path d="M65.1822 130.615H59.0329V139.475H65.1822V130.615Z" fill="#263238"/>
<path d="M65.1822 141.794H59.0329V150.654H65.1822V141.794Z" fill="#263238"/>
<path d="M65.1822 152.962H59.0329V161.822H65.1822V152.962Z" fill="#263238"/>
<path d="M65.1822 164.142H59.0329V173.001H65.1822V164.142Z" fill="#263238"/>
<path d="M65.1822 175.321H59.0329V184.181H65.1822V175.321Z" fill="#263238"/>
<path d="M65.1822 186.495H59.0329V195.355H65.1822V186.495Z" fill="#263238"/>
<path d="M65.1822 197.668H59.0329V206.528H65.1822V197.668Z" fill="#263238"/>
<path d="M65.1822 208.848H59.0329V217.707H65.1822V208.848Z" fill="#263238"/>
<path d="M65.1822 85.9092H59.0329V94.7688H65.1822V85.9092Z" fill="#263238"/>
<path d="M65.1822 97.0884H59.0329V105.948H65.1822V97.0884Z" fill="#263238"/>
<path d="M65.1822 108.262H59.0329V117.122H65.1822V108.262Z" fill="#263238"/>
<path d="M65.1822 119.436H59.0329V128.295H65.1822V119.436Z" fill="#263238"/>
<path d="M65.1822 130.615H59.0329V139.475H65.1822V130.615Z" fill="#263238"/>
<path d="M65.1822 141.794H59.0329V150.654H65.1822V141.794Z" fill="#263238"/>
<path d="M65.1822 152.962H59.0329V161.822H65.1822V152.962Z" fill="#263238"/>
<path d="M65.1822 164.142H59.0329V173.001H65.1822V164.142Z" fill="#263238"/>
<path d="M65.1822 175.321H59.0329V184.181H65.1822V175.321Z" fill="#263238"/>
<path d="M65.1822 186.495H59.0329V195.355H65.1822V186.495Z" fill="#263238"/>
<path d="M65.1822 197.668H59.0329V206.528H65.1822V197.668Z" fill="#263238"/>
<path d="M65.1822 208.848H59.0329V217.707H65.1822V208.848Z" fill="#263238"/>
<path d="M75.3649 85.9092H69.2156V94.7688H75.3649V85.9092Z" fill="#263238"/>
<path d="M75.3649 97.0884H69.2156V105.948H75.3649V97.0884Z" fill="#263238"/>
<path d="M75.3649 108.262H69.2156V117.122H75.3649V108.262Z" fill="#263238"/>
<path d="M75.3649 119.436H69.2156V128.295H75.3649V119.436Z" fill="#263238"/>
<path d="M75.3649 130.615H69.2156V139.475H75.3649V130.615Z" fill="#263238"/>
<path d="M75.3649 141.794H69.2156V150.654H75.3649V141.794Z" fill="#263238"/>
<path d="M75.3649 152.962H69.2156V161.822H75.3649V152.962Z" fill="#263238"/>
<path d="M75.3649 164.142H69.2156V173.001H75.3649V164.142Z" fill="#263238"/>
<path d="M75.3649 175.321H69.2156V184.181H75.3649V175.321Z" fill="#263238"/>
<path d="M75.3649 186.495H69.2156V195.355H75.3649V186.495Z" fill="#263238"/>
<path d="M75.3649 197.668H69.2156V206.528H75.3649V197.668Z" fill="#263238"/>
<path d="M75.3649 208.848H69.2156V217.707H75.3649V208.848Z" fill="#263238"/>
<path d="M75.3649 85.9092H69.2156V94.7688H75.3649V85.9092Z" fill="#263238"/>
<path d="M75.3649 97.0884H69.2156V105.948H75.3649V97.0884Z" fill="#263238"/>
<path d="M75.3649 108.262H69.2156V117.122H75.3649V108.262Z" fill="#263238"/>
<path d="M75.3649 119.436H69.2156V128.295H75.3649V119.436Z" fill="#263238"/>
<path d="M75.3649 130.615H69.2156V139.475H75.3649V130.615Z" fill="#263238"/>
<path d="M75.3649 141.794H69.2156V150.654H75.3649V141.794Z" fill="#263238"/>
<path d="M75.3649 152.962H69.2156V161.822H75.3649V152.962Z" fill="#263238"/>
<path d="M75.3649 164.142H69.2156V173.001H75.3649V164.142Z" fill="#263238"/>
<path d="M75.3649 175.321H69.2156V184.181H75.3649V175.321Z" fill="#263238"/>
<path d="M75.3649 186.495H69.2156V195.355H75.3649V186.495Z" fill="#263238"/>
<path d="M75.3649 197.668H69.2156V206.528H75.3649V197.668Z" fill="#263238"/>
<path d="M75.3649 208.848H69.2156V217.707H75.3649V208.848Z" fill="#263238"/>
<path d="M85.5534 85.9092H79.4041V94.7688H85.5534V85.9092Z" fill="#263238"/>
<path d="M85.5534 97.0884H79.4041V105.948H85.5534V97.0884Z" fill="#263238"/>
<path d="M85.5534 108.262H79.4041V117.122H85.5534V108.262Z" fill="#263238"/>
<path d="M85.5534 119.436H79.4041V128.295H85.5534V119.436Z" fill="#263238"/>
<path d="M85.5534 130.615H79.4041V139.475H85.5534V130.615Z" fill="#263238"/>
<path d="M85.5534 141.794H79.4041V150.654H85.5534V141.794Z" fill="#263238"/>
<path d="M85.5534 152.962H79.4041V161.822H85.5534V152.962Z" fill="#263238"/>
<path d="M85.5534 164.142H79.4041V173.001H85.5534V164.142Z" fill="#263238"/>
<path d="M85.5534 175.321H79.4041V184.181H85.5534V175.321Z" fill="#263238"/>
<path d="M85.5534 186.495H79.4041V195.355H85.5534V186.495Z" fill="#263238"/>
<path d="M85.5534 197.668H79.4041V206.528H85.5534V197.668Z" fill="#263238"/>
<path d="M85.5534 208.848H79.4041V217.707H85.5534V208.848Z" fill="#263238"/>
<path d="M85.5534 85.9092H79.4041V94.7688H85.5534V85.9092Z" fill="#263238"/>
<path d="M85.5534 97.0884H79.4041V105.948H85.5534V97.0884Z" fill="#263238"/>
<path d="M85.5534 108.262H79.4041V117.122H85.5534V108.262Z" fill="#263238"/>
<path d="M85.5534 119.436H79.4041V128.295H85.5534V119.436Z" fill="#263238"/>
<path d="M85.5534 130.615H79.4041V139.475H85.5534V130.615Z" fill="#263238"/>
<path d="M85.5534 141.794H79.4041V150.654H85.5534V141.794Z" fill="#263238"/>
<path d="M85.5534 152.962H79.4041V161.822H85.5534V152.962Z" fill="#263238"/>
<path d="M85.5534 164.142H79.4041V173.001H85.5534V164.142Z" fill="#263238"/>
<path d="M85.5534 175.321H79.4041V184.181H85.5534V175.321Z" fill="#263238"/>
<path d="M85.5534 186.495H79.4041V195.355H85.5534V186.495Z" fill="#263238"/>
<path d="M85.5534 197.668H79.4041V206.528H85.5534V197.668Z" fill="#263238"/>
<path d="M85.5534 208.848H79.4041V217.707H85.5534V208.848Z" fill="#263238"/>
<path d="M41.9141 222.668H14.0296V135.196L41.9141 117.122V222.668Z" fill="#FFB900"/>
<path d="M38.3295 222.668H17.1655V137.645L38.3295 123.93V222.668Z" fill="#FFB900"/>
<path opacity="0.3" d="M38.3295 222.668H17.1655V137.645L38.3295 123.93V222.668Z" fill="black"/>
<g opacity="0.3">
<path d="M38.3292 139.114H19.59V139.79H38.3292V139.114Z" fill="black"/>
<path d="M38.3292 144.639H19.59V145.315H38.3292V144.639Z" fill="black"/>
<path d="M38.3292 150.165H19.59V150.841H38.3292V150.165Z" fill="black"/>
<path d="M38.3292 155.69H19.59V156.367H38.3292V155.69Z" fill="black"/>
<path d="M38.3292 161.216H19.59V161.892H38.3292V161.216Z" fill="black"/>
<path d="M38.3292 166.742H19.59V167.418H38.3292V166.742Z" fill="black"/>
<path d="M38.3292 172.268H19.59V172.944H38.3292V172.268Z" fill="black"/>
<path d="M38.3292 177.793H19.59V178.469H38.3292V177.793Z" fill="black"/>
<path d="M38.3292 183.318H19.59V183.994H38.3292V183.318Z" fill="black"/>
<path d="M38.3292 188.844H19.59V189.52H38.3292V188.844Z" fill="black"/>
<path d="M38.3292 194.37H19.59V195.046H38.3292V194.37Z" fill="black"/>
<path d="M38.3292 199.895H19.59V200.571H38.3292V199.895Z" fill="black"/>
<path d="M38.3292 205.421H19.59V206.097H38.3292V205.421Z" fill="black"/>
<path d="M38.3292 210.946H19.59V211.622H38.3292V210.946Z" fill="black"/>
<path d="M38.3292 216.472H19.59V217.148H38.3292V216.472Z" fill="black"/>
<path d="M38.3292 221.998H19.59V222.674H38.3292V221.998Z" fill="black"/>
<path d="M28.6246 132.696L28.6246 222.674H29.3007L29.3007 132.696H28.6246Z" fill="black"/>
</g>
<path d="M38.3293 123.93V126.972L19.5901 139.113V222.668H17.1712V137.639L38.3293 123.93Z" fill="#FFB900"/>
<path opacity="0.2" d="M38.3293 123.93V126.972L19.5901 139.113V222.668H17.1712V137.639L38.3293 123.93Z" fill="black"/>
<path d="M66.482 117.122H41.914V222.668H66.482V117.122Z" fill="#FFB900"/>
<path opacity="0.2" d="M66.482 117.122H41.914V222.668H66.482V117.122Z" fill="black"/>
<g opacity="0.2">
<path d="M64.0979 123.93H44.2979V126.319H64.0979V123.93Z" fill="black"/>
<path d="M64.0981 129.339H44.298V131.729H64.0981V129.339Z" fill="black"/>
<path d="M64.0981 134.754H44.298V137.144H64.0981V134.754Z" fill="black"/>
<path d="M64.0981 140.163H44.298V142.552H64.0981V140.163Z" fill="black"/>
<path d="M64.0981 145.577H44.298V147.967H64.0981V145.577Z" fill="black"/>
<path d="M64.0981 150.992H44.298V153.382H64.0981V150.992Z" fill="black"/>
<path d="M64.0981 156.401H44.298V158.791H64.0981V156.401Z" fill="black"/>
<path d="M64.0981 161.816H44.298V164.206H64.0981V161.816Z" fill="black"/>
<path d="M64.0981 167.225H44.298V169.615H64.0981V167.225Z" fill="black"/>
<path d="M64.0981 172.64H44.298V175.03H64.0981V172.64Z" fill="black"/>
<path d="M64.0981 178.055H44.298V180.445H64.0981V178.055Z" fill="black"/>
<path d="M64.0981 183.464H44.298V185.854H64.0981V183.464Z" fill="black"/>
<path d="M64.0981 188.879H44.298V191.269H64.0981V188.879Z" fill="black"/>
<path d="M64.0981 194.288H44.298V196.678H64.0981V194.288Z" fill="black"/>
<path d="M64.0981 199.703H44.298V202.092H64.0981V199.703Z" fill="black"/>
<path d="M64.0981 205.118H44.298V207.507H64.0981V205.118Z" fill="black"/>
<path d="M64.0981 210.527H44.298V212.917H64.0981V210.527Z" fill="black"/>
<path d="M64.0981 215.941H44.298V218.331H64.0981V215.941Z" fill="black"/>
</g>
<path d="M168.059 110.92H145.956V222.673H168.059V110.92Z" fill="#FFB900"/>
<path opacity="0.2" d="M168.059 110.92H145.956V222.673H168.059V110.92Z" fill="black"/>
<path d="M145.956 110.92H169.382V107.26H145.956V110.92Z" fill="#FFB900"/>
<path d="M145.95 107.26H165.815V101.542H145.95V107.26Z" fill="#FFB900"/>
<path opacity="0.2" d="M145.95 107.26H165.815V101.542H145.95V107.26Z" fill="black"/>
<path d="M145.956 101.536H161.152V88.9223H145.956V101.536Z" fill="#FFB900"/>
<path opacity="0.3" d="M145.956 101.536H161.152V88.9223H145.956V101.536Z" fill="black"/>
<g opacity="0.3">
<path d="M151.068 115.152H148.072V126.908H151.068V115.152Z" fill="black"/>
</g>
<g opacity="0.3">
<path d="M151.068 131.169H148.072V142.925H151.068V131.169Z" fill="black"/>
</g>
<g opacity="0.3">
<path d="M151.068 147.18H148.072V158.937H151.068V147.18Z" fill="black"/>
</g>
<g opacity="0.3">
<path d="M151.068 163.192H148.072V174.948H151.068V163.192Z" fill="black"/>
</g>
<g opacity="0.3">
<path d="M151.068 179.209H148.072V190.965H151.068V179.209Z" fill="black"/>
</g>
<g opacity="0.3">
<path d="M151.068 195.221H148.072V206.977H151.068V195.221Z" fill="black"/>
</g>
<g opacity="0.3">
<path d="M156.028 115.152H153.032V126.908H156.028V115.152Z" fill="black"/>
</g>
<g opacity="0.3">
<path d="M156.028 131.169H153.032V142.925H156.028V131.169Z" fill="black"/>
</g>
<g opacity="0.3">
<path d="M156.028 147.18H153.032V158.937H156.028V147.18Z" fill="black"/>
</g>
<g opacity="0.3">
<path d="M156.028 163.192H153.032V174.948H156.028V163.192Z" fill="black"/>
</g>
<g opacity="0.3">
<path d="M156.028 179.209H153.032V190.965H156.028V179.209Z" fill="black"/>
</g>
<g opacity="0.3">
<path d="M156.028 195.221H153.032V206.977H156.028V195.221Z" fill="black"/>
</g>
<g opacity="0.3">
<path d="M160.983 115.152H157.987V126.908H160.983V115.152Z" fill="black"/>
</g>
<g opacity="0.3">
<path d="M160.983 131.169H157.987V142.925H160.983V131.169Z" fill="black"/>
</g>
<g opacity="0.3">
<path d="M160.983 147.18H157.987V158.937H160.983V147.18Z" fill="black"/>
</g>
<g opacity="0.3">
<path d="M160.983 163.192H157.987V174.948H160.983V163.192Z" fill="black"/>
</g>
<g opacity="0.3">
<path d="M160.983 179.209H157.987V190.965H160.983V179.209Z" fill="black"/>
</g>
<g opacity="0.3">
<path d="M160.983 195.221H157.987V206.977H160.983V195.221Z" fill="black"/>
</g>
<g opacity="0.3">
<path d="M165.937 115.152H162.941V126.908H165.937V115.152Z" fill="black"/>
</g>
<g opacity="0.3">
<path d="M165.937 131.169H162.941V142.925H165.937V131.169Z" fill="black"/>
</g>
<g opacity="0.3">
<path d="M165.937 147.18H162.941V158.937H165.937V147.18Z" fill="black"/>
</g>
<g opacity="0.3">
<path d="M165.937 163.192H162.941V174.948H165.937V163.192Z" fill="black"/>
</g>
<g opacity="0.3">
<path d="M165.937 179.209H162.941V190.965H165.937V179.209Z" fill="black"/>
</g>
<g opacity="0.3">
<path d="M165.937 195.221H162.941V206.977H165.937V195.221Z" fill="black"/>
</g>
<path d="M145.95 110.92H100.644V222.673H145.95V110.92Z" fill="#FFB900"/>
<path d="M145.956 101.536H102.818V107.254H145.956V101.536Z" fill="#FFB900"/>
<path d="M145.956 88.9282H113.496V101.542H145.956V88.9282Z" fill="#FFB900"/>
<path opacity="0.2" d="M145.956 88.9282H113.496V101.542H145.956V88.9282Z" fill="black"/>
<path d="M145.956 107.254H99.2916V110.914H145.956V107.254Z" fill="#FFB900"/>
<path opacity="0.2" d="M145.956 107.254H99.2916V110.914H145.956V107.254Z" fill="black"/>
<g opacity="0.3">
<path d="M111.13 115.152H104.98V126.908H111.13V115.152Z" fill="black"/>
</g>
<g opacity="0.3">
<path d="M111.13 131.169H104.98V142.925H111.13V131.169Z" fill="black"/>
</g>
<g opacity="0.3">
<path d="M111.13 147.18H104.98V158.937H111.13V147.18Z" fill="black"/>
</g>
<g opacity="0.3">
<path d="M111.13 163.192H104.98V174.948H111.13V163.192Z" fill="black"/>
</g>
<g opacity="0.3">
<path d="M111.13 179.209H104.98V190.965H111.13V179.209Z" fill="black"/>
</g>
<g opacity="0.3">
<path d="M111.13 195.221H104.98V206.977H111.13V195.221Z" fill="black"/>
</g>
<g opacity="0.3">
<path d="M121.295 115.152H115.146V126.908H121.295V115.152Z" fill="black"/>
</g>
<g opacity="0.3">
<path d="M121.295 131.169H115.146V142.925H121.295V131.169Z" fill="black"/>
</g>
<g opacity="0.3">
<path d="M121.295 147.18H115.146V158.937H121.295V147.18Z" fill="black"/>
</g>
<g opacity="0.3">
<path d="M121.295 163.192H115.146V174.948H121.295V163.192Z" fill="black"/>
</g>
<g opacity="0.3">
<path d="M121.295 179.209H115.146V190.965H121.295V179.209Z" fill="black"/>
</g>
<g opacity="0.3">
<path d="M121.295 195.221H115.146V206.977H121.295V195.221Z" fill="black"/>
</g>
<g opacity="0.3">
<path d="M131.46 115.152H125.311V126.908H131.46V115.152Z" fill="black"/>
</g>
<g opacity="0.3">
<path d="M131.46 131.169H125.311V142.925H131.46V131.169Z" fill="black"/>
</g>
<g opacity="0.3">
<path d="M131.46 147.18H125.311V158.937H131.46V147.18Z" fill="black"/>
</g>
<g opacity="0.3">
<path d="M131.46 163.192H125.311V174.948H131.46V163.192Z" fill="black"/>
</g>
<g opacity="0.3">
<path d="M131.46 179.209H125.311V190.965H131.46V179.209Z" fill="black"/>
</g>
<g opacity="0.3">
<path d="M131.46 195.221H125.311V206.977H131.46V195.221Z" fill="black"/>
</g>
<g opacity="0.3">
<path d="M141.62 115.152H135.47V126.908H141.62V115.152Z" fill="black"/>
</g>
<g opacity="0.3">
<path d="M141.62 131.169H135.47V142.925H141.62V131.169Z" fill="black"/>
</g>
<g opacity="0.3">
<path d="M141.62 147.18H135.47V158.937H141.62V147.18Z" fill="black"/>
</g>
<g opacity="0.3">
<path d="M141.62 163.192H135.47V174.948H141.62V163.192Z" fill="black"/>
</g>
<g opacity="0.3">
<path d="M141.62 179.209H135.47V190.965H141.62V179.209Z" fill="black"/>
</g>
<g opacity="0.3">
<path d="M141.62 195.221H135.47V206.977H141.62V195.221Z" fill="black"/>
</g>
<path opacity="0.3" d="M131.46 211.593H115.146V222.668H131.46V211.593Z" fill="black"/>
<path d="M213.406 158.942H191.303V222.667H213.406V158.942Z" fill="#FFB900"/>
<path opacity="0.2" d="M213.406 158.942H191.303V222.667H213.406V158.942Z" fill="black"/>
<path d="M191.303 158.948H214.729V155.288H191.303V158.948Z" fill="#FFB900"/>
<path d="M191.303 155.282H211.168V149.564H191.303V155.282Z" fill="#FFB900"/>
<path opacity="0.2" d="M191.303 155.282H211.168V149.564H191.303V155.282Z" fill="black"/>
<g opacity="0.3">
<path d="M196.421 163.18H193.425V174.937H196.421V163.18Z" fill="black"/>
</g>
<g opacity="0.3">
<path d="M196.421 179.191H193.425V190.948H196.421V179.191Z" fill="black"/>
</g>
<g opacity="0.3">
<path d="M196.421 195.209H193.425V206.965H196.421V195.209Z" fill="black"/>
</g>
<g opacity="0.3">
<path d="M201.375 163.18H198.379V174.937H201.375V163.18Z" fill="black"/>
</g>
<g opacity="0.3">
<path d="M201.375 179.191H198.379V190.948H201.375V179.191Z" fill="black"/>
</g>
<g opacity="0.3">
<path d="M201.375 195.209H198.379V206.965H201.375V195.209Z" fill="black"/>
</g>
<g opacity="0.3">
<path d="M206.33 163.18H203.334V174.937H206.33V163.18Z" fill="black"/>
</g>
<g opacity="0.3">
<path d="M206.33 179.191H203.334V190.948H206.33V179.191Z" fill="black"/>
</g>
<g opacity="0.3">
<path d="M206.33 195.209H203.334V206.965H206.33V195.209Z" fill="black"/>
</g>
<g opacity="0.3">
<path d="M211.284 163.18H208.288V174.937H211.284V163.18Z" fill="black"/>
</g>
<g opacity="0.3">
<path d="M211.284 179.191H208.288V190.948H211.284V179.191Z" fill="black"/>
</g>
<g opacity="0.3">
<path d="M211.284 195.209H208.288V206.965H211.284V195.209Z" fill="black"/>
</g>
<path d="M191.303 158.942H145.997V222.667H191.303V158.942Z" fill="#FFB900"/>
<path d="M191.303 149.564H148.165V155.282H191.303V149.564Z" fill="#FFB900"/>
<path d="M191.303 155.282H144.639V158.943H191.303V155.282Z" fill="#FFB900"/>
<path opacity="0.2" d="M191.303 155.282H144.639V158.943H191.303V155.282Z" fill="black"/>
<g opacity="0.3">
<path d="M156.477 163.18H150.328V174.937H156.477V163.18Z" fill="black"/>
</g>
<g opacity="0.3">
<path d="M156.477 179.191H150.328V190.948H156.477V179.191Z" fill="black"/>
</g>
<g opacity="0.3">
<path d="M156.477 195.209H150.328V206.965H156.477V195.209Z" fill="black"/>
</g>
<g opacity="0.3">
<path d="M166.642 163.18H160.493V174.937H166.642V163.18Z" fill="black"/>
</g>
<g opacity="0.3">
<path d="M166.642 179.191H160.493V190.948H166.642V179.191Z" fill="black"/>
</g>
<g opacity="0.3">
<path d="M166.642 195.209H160.493V206.965H166.642V195.209Z" fill="black"/>
</g>
<g opacity="0.3">
<path d="M176.807 163.18H170.658V174.937H176.807V163.18Z" fill="black"/>
</g>
<g opacity="0.3">
<path d="M176.807 179.191H170.658V190.948H176.807V179.191Z" fill="black"/>
</g>
<g opacity="0.3">
<path d="M176.807 195.209H170.658V206.965H176.807V195.209Z" fill="black"/>
</g>
<g opacity="0.3">
<path d="M186.973 163.18H180.824V174.937H186.973V163.18Z" fill="black"/>
</g>
<g opacity="0.3">
<path d="M186.973 179.191H180.824V190.948H186.973V179.191Z" fill="black"/>
</g>
<g opacity="0.3">
<path d="M186.973 195.209H180.824V206.965H186.973V195.209Z" fill="black"/>
</g>
<path d="M173.608 68.8894C173.305 68.7384 172.994 68.6061 172.675 68.4931C172.349 68.3691 172.008 68.2906 171.661 68.2599C171.553 68.2497 171.444 68.2616 171.34 68.2949C171.307 68.3035 171.276 68.3173 171.247 68.3357L171.183 68.3823L171.072 68.4756C170.942 68.5926 170.82 68.7171 170.705 68.8486C170.472 69.1051 170.268 69.3732 170.064 69.6472L170.32 69.5597C169.978 69.4644 169.629 69.3923 169.277 69.3441C169.097 69.3184 168.916 69.3048 168.735 69.3033C168.64 69.2948 168.544 69.2948 168.449 69.3033C168.396 69.3099 168.343 69.3217 168.292 69.3382C168.237 69.3587 168.184 69.3841 168.134 69.414C167.979 69.5228 167.842 69.6545 167.726 69.8045C167.616 69.9444 167.517 70.0901 167.417 70.2417C167.232 70.5374 167.07 70.8473 166.934 71.1684C167.161 70.9003 167.377 70.6322 167.604 70.3757C167.715 70.2533 167.831 70.1251 167.954 70.0144C168.062 69.9019 168.185 69.8057 168.321 69.7288C168.45 69.6857 168.588 69.6718 168.723 69.688C168.888 69.6998 169.051 69.7232 169.213 69.7579C169.539 69.8162 169.871 69.8978 170.192 69.9794L170.349 70.026L170.443 69.892C170.629 69.6238 170.833 69.3615 171.025 69.1051C171.125 68.9768 171.229 68.8545 171.334 68.7437L171.416 68.6679L171.457 68.6388C171.515 68.6176 171.576 68.6058 171.637 68.6038C171.96 68.6045 172.282 68.6357 172.599 68.6971C172.949 68.7612 173.275 68.8311 173.608 68.8894Z" fill="#263238"/>
<path d="M169.941 78.8102C169.542 78.4956 169.121 78.2093 168.682 77.9534C168.238 77.6744 167.757 77.4568 167.254 77.3064C167.1 77.267 166.941 77.2533 166.782 77.2656C166.729 77.2744 166.676 77.2881 166.625 77.3064L166.52 77.3531L166.333 77.4521C166.1 77.592 165.89 77.7436 165.681 77.8951C165.267 78.2099 164.894 78.5421 164.515 78.886L164.911 78.8335C164.441 78.5911 163.954 78.3827 163.454 78.2099C163.197 78.1196 162.934 78.0475 162.667 77.9942C162.525 77.9626 162.381 77.9431 162.236 77.9359C162.156 77.9302 162.076 77.9302 161.997 77.9359C161.912 77.9518 161.828 77.9732 161.746 78C161.484 78.1141 161.242 78.2695 161.029 78.4605C160.822 78.6293 160.628 78.8124 160.446 79.0084C160.086 79.3875 159.757 79.7949 159.461 80.2266C159.869 79.9002 160.266 79.568 160.674 79.2649C160.878 79.1075 161.082 78.9618 161.292 78.8277C161.485 78.6971 161.694 78.5931 161.915 78.5188C162.111 78.4982 162.31 78.5181 162.498 78.5771C162.734 78.6427 162.965 78.7225 163.192 78.8161C163.658 78.9967 164.124 79.2182 164.567 79.4339L164.789 79.5505L164.964 79.3814C165.319 79.0434 165.692 78.7111 166.065 78.3964C166.251 78.2397 166.446 78.0938 166.648 77.9592C166.692 77.926 166.739 77.8967 166.788 77.8718L166.852 77.8368C166.943 77.8191 167.036 77.8191 167.126 77.8368C167.599 77.9287 168.062 78.0673 168.507 78.2507C169.003 78.4255 169.469 78.6237 169.941 78.8102Z" fill="#263238"/>
<path d="M68.3764 55.8624C68.1024 55.6623 67.8163 55.4793 67.5196 55.3145C67.216 55.1403 66.8906 55.0071 66.552 54.9182C66.4479 54.8997 66.3414 54.8997 66.2373 54.9182C66.2025 54.913 66.1672 54.913 66.1324 54.9182L66.0624 54.9532L65.94 55.0231C65.7885 55.1222 65.6486 55.2271 65.5145 55.332C65.2464 55.5477 65.0016 55.7808 64.7568 56.0198L65.0191 55.9732C64.6982 55.8219 64.3671 55.6934 64.0282 55.5885C63.8548 55.5328 63.6775 55.4899 63.4978 55.4603C63.4033 55.4445 63.3079 55.4348 63.2122 55.4311H63.0548C62.9975 55.4451 62.941 55.4626 62.8858 55.4836C62.7127 55.5622 62.5548 55.6707 62.4195 55.8042C62.288 55.9211 62.1634 56.0457 62.0465 56.1772C61.8132 56.4386 61.6026 56.7194 61.417 57.0165C61.6793 56.7892 61.9357 56.5561 62.2038 56.3462C62.3379 56.2413 62.4661 56.1364 62.606 56.0431C62.7324 55.9528 62.8694 55.8784 63.014 55.8216C63.1505 55.8009 63.2899 55.8108 63.422 55.8508C63.5808 55.8878 63.7367 55.9366 63.8883 55.9965C64.2031 56.1072 64.5178 56.2413 64.8209 56.3812L64.9725 56.4453L65.0832 56.3346C65.3105 56.0956 65.5553 55.8683 65.7943 55.6526C65.9109 55.5447 66.0335 55.4435 66.1615 55.3495L66.2548 55.2854H66.2956C66.3551 55.2725 66.4167 55.2725 66.4763 55.2854C66.7941 55.3403 67.1063 55.4242 67.4089 55.536C67.7411 55.6002 68.0558 55.7459 68.3764 55.8624Z" fill="#263238"/>
<path d="M76.6881 54.5159C76.4025 54.1062 76.0889 53.7167 75.7496 53.3502C75.408 52.9549 75.0161 52.6061 74.5839 52.3127C74.449 52.229 74.3014 52.1679 74.1468 52.132H73.9835H73.8728L73.663 52.1728C73.3949 52.2369 73.15 52.3185 72.9052 52.4001C72.4215 52.575 71.961 52.7848 71.4947 52.983L71.891 53.0471C71.5101 52.6769 71.1051 52.3322 70.6787 52.0154C70.4586 51.8557 70.2289 51.7097 69.9909 51.5783C69.8646 51.51 69.7342 51.4496 69.6004 51.3976C69.5243 51.372 69.4464 51.3525 69.3672 51.3393C69.2818 51.3335 69.1961 51.3335 69.1108 51.3393C68.8269 51.3731 68.5498 51.4497 68.2889 51.5666C68.0383 51.6715 67.8051 51.7939 67.572 51.9163C67.1171 52.1765 66.6826 52.4707 66.2722 52.7965C66.7618 52.6041 67.2339 52.4001 67.7177 52.2136C67.954 52.1238 68.1953 52.0479 68.4405 51.9863C68.6613 51.916 68.8908 51.8768 69.1224 51.8697C69.3314 51.9072 69.5301 51.9886 69.7053 52.1087C69.9074 52.2437 70.102 52.3896 70.2882 52.5458C70.6787 52.8548 71.0575 53.1987 71.4189 53.5426L71.5996 53.7174L71.8153 53.6067C72.2524 53.3852 72.7071 53.1812 73.1559 53.0238C73.3733 52.9251 73.5973 52.8413 73.8262 52.7732L73.9835 52.7265H74.0593C74.151 52.7377 74.2398 52.7653 74.3216 52.8081C74.7359 53.0392 75.1264 53.3105 75.4873 53.6183C75.9128 53.8515 76.2975 54.1954 76.6881 54.5159Z" fill="#263238"/>
<path d="M181.803 76.3734C181.517 75.9621 181.201 75.5724 180.858 75.2076C180.52 74.8092 180.128 74.46 179.693 74.1701C179.56 74.0816 179.412 74.0202 179.256 73.9894C179.201 73.9832 179.147 73.9832 179.092 73.9894H178.982C178.911 73.9968 178.84 74.0105 178.772 74.0302C178.514 74.0893 178.261 74.1653 178.014 74.2575C177.53 74.4324 177.07 74.6364 176.603 74.8404L177 74.9045C176.62 74.5326 176.215 74.1879 175.787 73.8728C175.57 73.7091 175.34 73.5629 175.1 73.4357C174.975 73.365 174.844 73.3046 174.709 73.255C174.639 73.255 174.552 73.2142 174.476 73.1909C174.391 73.1851 174.305 73.1851 174.22 73.1909C173.936 73.2228 173.659 73.2975 173.398 73.4124C173.153 73.518 172.913 73.6367 172.681 73.7679C172.226 74.0261 171.791 74.3183 171.381 74.6422C171.871 74.4499 172.343 74.2517 172.826 74.0594C173.065 73.9719 173.304 73.8903 173.549 73.8262C173.77 73.7576 174 73.7203 174.231 73.7155C174.441 73.7502 174.64 73.8319 174.814 73.9544C175.017 74.0855 175.212 74.2296 175.397 74.3858C175.787 74.6947 176.166 75.0444 176.528 75.3825L176.708 75.5573L176.924 75.4466C177.361 75.2309 177.816 75.0269 178.265 74.8637C178.483 74.7675 178.707 74.6838 178.935 74.6131C178.987 74.6131 179.046 74.5781 179.092 74.5723H179.168C179.26 74.5834 179.349 74.6111 179.43 74.6539C179.855 74.8833 180.255 75.1547 180.625 75.4641C181.027 75.7322 181.412 76.0586 181.803 76.3734Z" fill="#263238"/>
<path d="M27.4297 222.668C27.4297 222.668 26.9401 220.383 25.9609 220.027C24.9817 219.672 24.3813 220.704 24.3813 220.704C24.3813 220.704 24.154 218.518 22.761 217.859C21.3679 217.201 20.3304 218.547 20.3304 218.547C20.3304 218.547 19.2637 215.772 17.3578 215.772C15.4518 215.772 14.4959 219.853 14.4959 219.853C14.4959 219.853 13.3709 218.646 12.2169 219.328C11.0628 220.01 11.0511 222.691 11.0511 222.691L27.4297 222.668Z" fill="#37474F"/>
<path d="M189.957 222.668C189.957 222.668 189.467 220.383 188.488 220.027C187.509 219.672 186.914 220.704 186.914 220.704C186.914 220.704 186.681 218.518 185.294 217.859C183.907 217.201 182.863 218.547 182.863 218.547C182.863 218.547 181.797 215.772 179.891 215.772C177.985 215.772 177.023 219.853 177.023 219.853C177.023 219.853 175.904 218.646 174.75 219.328C173.596 220.01 173.584 222.691 173.584 222.691L189.957 222.668Z" fill="#455A64"/>
<path d="M70.7253 222.667H53.5016C53.5016 222.667 54.0844 220.243 55.2094 220.068C55.5532 220.037 55.8981 220.113 56.1981 220.283C56.498 220.454 56.7387 220.713 56.888 221.024C56.888 221.024 56.8356 217.637 58.9689 217.06C61.1022 216.483 62.8858 219.473 62.8858 219.473C62.8858 219.473 64.2264 217.771 66.0449 217.876C67.8635 217.981 68.3356 220.791 68.3356 220.791C68.3356 220.791 69.9909 219.829 70.7253 222.667Z" fill="#37474F"/>
<path d="M12.1236 222.668H3.06003C3.06003 222.668 3.06003 221.321 3.9693 220.96C4.21162 220.855 4.48131 220.833 4.73778 220.895C4.99426 220.957 5.22367 221.1 5.3915 221.304C5.3915 221.304 5.75288 218.821 7.41406 218.821C9.07524 218.821 9.87377 220.96 9.87377 220.96C10.0147 220.756 10.2123 220.597 10.4422 220.504C10.6722 220.411 10.9244 220.387 11.1677 220.435C12.0887 220.552 12.1236 222.668 12.1236 222.668Z" fill="#455A64"/>
<path d="M77.8363 222.668H68.7727C68.7727 222.668 68.7727 221.321 69.682 220.96C69.9243 220.855 70.194 220.832 70.4505 220.894C70.707 220.956 70.9364 221.1 71.1042 221.304C71.1042 221.304 71.4831 218.803 73.1326 218.803C74.7821 218.803 75.5632 220.96 75.5632 220.96C75.7041 220.756 75.9017 220.597 76.1316 220.504C76.3616 220.411 76.6138 220.387 76.8571 220.435C77.8014 220.552 77.8363 222.668 77.8363 222.668Z" fill="#455A64"/>
<path d="M226.934 222.668H217.871C217.871 222.668 217.871 221.321 218.78 220.96C219.022 220.855 219.292 220.833 219.548 220.895C219.805 220.957 220.034 221.1 220.202 221.304C220.202 221.304 220.563 218.821 222.225 218.821C223.886 218.821 224.684 220.96 224.684 220.96C224.825 220.755 225.022 220.596 225.252 220.503C225.482 220.41 225.735 220.386 225.978 220.435C226.899 220.552 226.934 222.668 226.934 222.668Z" fill="#455A64"/>
<path d="M240.16 222.667H225.215C225.215 222.667 225.25 220.447 226.719 219.852C227.118 219.684 227.561 219.651 227.981 219.756C228.402 219.861 228.777 220.099 229.05 220.435C229.05 220.435 229.633 216.355 232.39 216.355C235.147 216.355 236.435 219.852 236.435 219.852C236.667 219.515 236.993 219.254 237.372 219.1C237.751 218.947 238.167 218.908 238.568 218.99C240.101 219.188 240.16 222.667 240.16 222.667Z" fill="#37474F"/>
<path d="M243.214 222.667H-1.52588e-05V226.905H243.214V222.667Z" fill="#C7C7C7"/>
<path d="M17.0547 222.667C17.4355 224.054 17.4355 225.518 17.0547 226.905C16.8498 226.219 16.7516 225.505 16.7633 224.789C16.754 224.071 16.8523 223.356 17.0547 222.667Z" fill="#263238"/>
<path d="M36.0621 222.667C36.2646 223.356 36.3628 224.071 36.3536 224.789C36.3653 225.505 36.267 226.219 36.0621 226.905C35.6814 225.518 35.6814 224.054 36.0621 222.667Z" fill="#263238"/>
<path d="M55.0753 222.667C55.4561 224.054 55.4561 225.518 55.0753 226.905C54.8704 226.219 54.7721 225.505 54.7839 224.789C54.7746 224.071 54.8728 223.356 55.0753 222.667Z" fill="#263238"/>
<path d="M74.0825 222.667C74.285 223.356 74.3832 224.071 74.374 224.789C74.3857 225.505 74.2874 226.219 74.0825 226.905C73.7018 225.518 73.7018 224.054 74.0825 222.667Z" fill="#263238"/>
<path d="M93.0957 222.667C93.4764 224.054 93.4764 225.518 93.0957 226.905C92.8908 226.219 92.7925 225.505 92.8043 224.789C92.795 224.071 92.8932 223.356 93.0957 222.667Z" fill="#263238"/>
<path d="M112.103 222.667C112.306 223.356 112.404 224.071 112.395 224.789C112.406 225.505 112.308 226.219 112.103 226.905C111.722 225.518 111.722 224.054 112.103 222.667Z" fill="#263238"/>
<path d="M131.116 222.667C131.497 224.054 131.497 225.518 131.116 226.905C130.911 226.219 130.813 225.505 130.825 224.789C130.816 224.071 130.914 223.356 131.116 222.667Z" fill="#263238"/>
<path d="M150.124 222.667C150.326 223.356 150.424 224.071 150.415 224.789C150.427 225.505 150.329 226.219 150.124 226.905C149.743 225.518 149.743 224.054 150.124 222.667Z" fill="#263238"/>
<path d="M169.137 222.667C169.518 224.054 169.518 225.518 169.137 226.905C168.932 226.219 168.834 225.505 168.845 224.789C168.836 224.071 168.934 223.356 169.137 222.667Z" fill="#263238"/>
<path d="M188.144 222.667C188.347 223.356 188.445 224.071 188.436 224.789C188.447 225.505 188.349 226.219 188.144 226.905C187.763 225.518 187.763 224.054 188.144 222.667Z" fill="#263238"/>
<path d="M207.157 222.667C207.538 224.054 207.538 225.518 207.157 226.905C206.953 226.219 206.854 225.505 206.866 224.789C206.857 224.071 206.955 223.356 207.157 222.667Z" fill="#263238"/>
<path d="M226.165 222.667C226.367 223.356 226.466 224.071 226.456 224.789C226.468 225.505 226.37 226.219 226.165 226.905C225.784 225.518 225.784 224.054 226.165 222.667Z" fill="#263238"/>
<path d="M1.80099 226.905L31.7546 226.765L61.7083 226.712L121.61 226.613L181.511 226.712L211.465 226.765L241.418 226.905L211.465 227.05L181.511 227.103L121.61 227.196L61.7083 227.097L31.7546 227.05L1.80099 226.905Z" fill="#263238"/>
</svg>
